<?xml version="1.0" encoding="UTF-8" standalone="no"?>
<!-- Created with Inkscape (http://www.inkscape.org/) -->

<svg
   xmlns:dc="http://purl.org/dc/elements/1.1/"
   xmlns:cc="http://creativecommons.org/ns#"
   xmlns:rdf="http://www.w3.org/1999/02/22-rdf-syntax-ns#"
   xmlns:svg="http://www.w3.org/2000/svg"
   xmlns="http://www.w3.org/2000/svg"
   xmlns:sodipodi="http://sodipodi.sourceforge.net/DTD/sodipodi-0.dtd"
   xmlns:inkscape="http://www.inkscape.org/namespaces/inkscape"
   width="40.43782mm"
   height="53.289013mm"
   viewBox="0 0 40.43782 53.289013"
   version="1.1"
   id="svg4570"
   inkscape:version="0.92.3 (2405546, 2018-03-11)"
   sodipodi:docname="logo_text_baked_path.svg">
  <defs
     id="defs4564" />
  <sodipodi:namedview
     id="base"
     pagecolor="#ffffff"
     bordercolor="#666666"
     borderopacity="1.0"
     inkscape:pageopacity="0.0"
     inkscape:pageshadow="2"
     inkscape:zoom="11.2"
     inkscape:cx="115.64752"
     inkscape:cy="38.172259"
     inkscape:document-units="mm"
     inkscape:current-layer="layer1"
     showgrid="true"
     inkscape:window-width="3836"
     inkscape:window-height="2136"
     inkscape:window-x="0"
     inkscape:window-y="20"
     inkscape:window-maximized="0"
     fit-margin-top="0"
     fit-margin-left="0"
     fit-margin-right="0"
     fit-margin-bottom="0" />
  <metadata
     id="metadata4567">
    <rdf:RDF>
      <cc:Work
         rdf:about="">
        <dc:format>image/svg+xml</dc:format>
        <dc:type
           rdf:resource="http://purl.org/dc/dcmitype/StillImage" />
        <dc:title></dc:title>
      </cc:Work>
    </rdf:RDF>
  </metadata>
  <g
     inkscape:label="Layer 1"
     inkscape:groupmode="layer"
     id="layer1"
     transform="translate(-84.781089,-79.197491)">
    <path
       sodipodi:type="star"
       style="fill:#6839ba;fill-opacity:1;stroke-width:0.3708798"
       id="path4514-2-3-5-93-4-6"
       sodipodi:sides="5"
       sodipodi:cx="105"
       sodipodi:cy="97.185783"
       sodipodi:r1="7.8837018"
       sodipodi:r2="6.3780479"
       sodipodi:arg1="-1.5707963"
       sodipodi:arg2="-0.9424778"
       inkscape:flatsided="true"
       inkscape:rounded="3.57"
       inkscape:randomized="0"
       d="m 105,89.302082 c 33.08622,0 -2.72636,-26.019357 7.49785,5.447504 10.2242,31.466864 23.90338,-10.633342 -2.86393,8.814244 -26.767307,19.44759 17.49947,19.44759 -9.26784,0 C 73.598767,84.116242 87.277951,126.21645 97.502154,94.749585 107.72636,63.282725 71.913785,89.302081 105,89.302082 Z"
       inkscape:transform-center-y="-0.34973902" />
    <g
       aria-label="Woost"
       style="font-style:normal;font-variant:normal;font-weight:500;font-stretch:normal;font-size:9.60766697px;line-height:1.25;font-family:Raleway;-inkscape-font-specification:'Raleway Medium';letter-spacing:0px;word-spacing:0px;fill:#000000;fill-opacity:1;stroke:none;stroke-width:0.24019162"
       id="text6775-1">
      <path
         d="m 93.788675,125.60741 h 0.816651 l 0.903121,2.3731 0.912728,-2.3731 h 0.816652 l -1.181743,2.96877 1.172135,2.81505 2.30584,-5.82225 h 0.941551 l -2.853476,6.82145 h -0.749398 l -1.354681,-3.21857 -1.364289,3.21857 h -0.749398 l -2.843869,-6.82145 h 0.931943 l 2.315448,5.82225 1.162528,-2.81505 z"
         style="font-style:normal;font-variant:normal;font-weight:500;font-stretch:normal;font-family:Raleway;-inkscape-font-specification:'Raleway Medium';stroke-width:0.24019162"
         id="path4558" />
      <path
         d="m 102.76674,132.4865 q -0.56685,0 -1.03763,-0.21137 -0.46117,-0.21136 -0.79744,-0.56685 -0.32666,-0.35548 -0.5092,-0.82626 -0.18255,-0.47077 -0.18255,-0.98959 0,-0.52842 0.18255,-0.99919 0.19215,-0.47078 0.51881,-0.82626 0.33627,-0.35549 0.79744,-0.56686 0.47077,-0.21136 1.02802,-0.21136 0.55724,0 1.02802,0.21136 0.47078,0.21137 0.79744,0.56686 0.33626,0.35548 0.51881,0.82626 0.19215,0.47077 0.19215,0.99919 0,0.51882 -0.18254,0.98959 -0.18255,0.47078 -0.51882,0.82626 -0.33626,0.35549 -0.80704,0.56685 -0.46117,0.21137 -1.02802,0.21137 z m -1.66213,-2.58446 q 0,0.39392 0.1249,0.73018 0.13451,0.33627 0.35549,0.58607 0.23058,0.2498 0.52842,0.39392 0.30744,0.14411 0.65332,0.14411 0.34588,0 0.64371,-0.14411 0.30745,-0.14412 0.53803,-0.39392 0.23059,-0.25941 0.35549,-0.59567 0.1345,-0.34588 0.1345,-0.73979 0,-0.38431 -0.1345,-0.72058 -0.1249,-0.34588 -0.35549,-0.59567 -0.23058,-0.25941 -0.53803,-0.40353 -0.29783,-0.14411 -0.64371,-0.14411 -0.34588,0 -0.65332,0.15372 -0.29784,0.14412 -0.52842,0.40352 -0.22098,0.2498 -0.35549,0.59568 -0.1249,0.33627 -0.1249,0.73018 z"
         style="font-style:normal;font-variant:normal;font-weight:500;font-stretch:normal;font-family:Raleway;-inkscape-font-specification:'Raleway Medium';stroke-width:0.24019162"
         id="path4560" />
      <path
         d="m 108.52759,132.4865 q -0.56686,0 -1.03763,-0.21137 -0.46117,-0.21136 -0.79744,-0.56685 -0.32666,-0.35548 -0.5092,-0.82626 -0.18255,-0.47077 -0.18255,-0.98959 0,-0.52842 0.18255,-0.99919 0.19215,-0.47078 0.51881,-0.82626 0.33627,-0.35549 0.79744,-0.56686 0.47077,-0.21136 1.02802,-0.21136 0.55724,0 1.02802,0.21136 0.47077,0.21137 0.79743,0.56686 0.33627,0.35548 0.51882,0.82626 0.19215,0.47077 0.19215,0.99919 0,0.51882 -0.18255,0.98959 -0.18254,0.47078 -0.51881,0.82626 -0.33627,0.35549 -0.80704,0.56685 -0.46117,0.21137 -1.02802,0.21137 z m -1.66213,-2.58446 q 0,0.39392 0.1249,0.73018 0.13451,0.33627 0.35548,0.58607 0.23059,0.2498 0.52842,0.39392 0.30745,0.14411 0.65333,0.14411 0.34587,0 0.64371,-0.14411 0.30745,-0.14412 0.53803,-0.39392 0.23058,-0.25941 0.35548,-0.59567 0.13451,-0.34588 0.13451,-0.73979 0,-0.38431 -0.13451,-0.72058 -0.1249,-0.34588 -0.35548,-0.59567 -0.23058,-0.25941 -0.53803,-0.40353 -0.29784,-0.14411 -0.64371,-0.14411 -0.34588,0 -0.65333,0.15372 -0.29783,0.14412 -0.52842,0.40352 -0.22097,0.2498 -0.35548,0.59568 -0.1249,0.33627 -0.1249,0.73018 z"
         style="font-style:normal;font-variant:normal;font-weight:500;font-stretch:normal;font-family:Raleway;-inkscape-font-specification:'Raleway Medium';stroke-width:0.24019162"
         id="path4562" />
      <path
         d="m 113.85609,132.4865 q -0.60528,0 -1.19135,-0.18254 -0.58607,-0.19216 -1.00881,-0.54764 l 0.36509,-0.56685 q 0.44196,0.33627 0.88391,0.5092 0.44195,0.16333 0.93194,0.16333 0.54764,0 0.86469,-0.21136 0.32666,-0.22098 0.32666,-0.61489 0,-0.18255 -0.0865,-0.30745 -0.0865,-0.13451 -0.2594,-0.23058 -0.17294,-0.0961 -0.44195,-0.17294 -0.26902,-0.0769 -0.6245,-0.16333 -0.45156,-0.11529 -0.77822,-0.22098 -0.32666,-0.10568 -0.53803,-0.2498 -0.21137,-0.14411 -0.30745,-0.34587 -0.0961,-0.20176 -0.0961,-0.4996 0,-0.3747 0.14412,-0.66293 0.15372,-0.29784 0.41313,-0.48999 0.25941,-0.20176 0.60528,-0.29784 0.35549,-0.10568 0.75901,-0.10568 0.56685,0 1.05684,0.18254 0.48999,0.18255 0.82626,0.48038 l -0.38431,0.50921 q -0.31705,-0.27862 -0.71096,-0.41313 -0.39392,-0.14411 -0.80705,-0.14411 -0.46117,0 -0.78783,0.20176 -0.31705,0.19215 -0.31705,0.6245 0,0.17293 0.0576,0.28823 0.0673,0.11529 0.21137,0.20176 0.14411,0.0865 0.36509,0.15372 0.23058,0.0673 0.54763,0.14411 0.4996,0.1153 0.86469,0.2402 0.3747,0.11529 0.61489,0.27862 0.2498,0.16333 0.3651,0.3843 0.1249,0.22098 0.1249,0.53803 0,0.70136 -0.53803,1.11449 -0.53803,0.41313 -1.45076,0.41313 z"
         style="font-style:normal;font-variant:normal;font-weight:500;font-stretch:normal;font-family:Raleway;-inkscape-font-specification:'Raleway Medium';stroke-width:0.24019162"
         id="path4564" />
      <path
         d="m 119.43949,132.14063 q -0.0769,0.0384 -0.20176,0.0961 -0.1249,0.048 -0.28823,0.10569 -0.15372,0.048 -0.34587,0.0769 -0.18255,0.0384 -0.38431,0.0384 -0.46117,0 -0.79744,-0.2498 -0.33626,-0.25941 -0.33626,-0.79744 v -3.37229 h -0.68215 v -0.66293 h 0.68215 v -1.67173 h 0.84547 v 1.67173 h 1.1241 v 0.66293 h -1.1241 v 3.11289 q 0.0192,0.27862 0.18255,0.40352 0.16333,0.1249 0.3843,0.1249 0.2498,0 0.45156,-0.0769 0.21137,-0.0865 0.28823,-0.13451 z"
         style="font-style:normal;font-variant:normal;font-weight:500;font-stretch:normal;font-family:Raleway;-inkscape-font-specification:'Raleway Medium';stroke-width:0.24019162"
         id="path4566" />
    </g>
  </g>
</svg>
